<mxfile host="app.diagrams.net" agent="Mozilla/5.0 (Macintosh; Intel Mac OS X 10_15_7) AppleWebKit/605.1.15 (KHTML, like Gecko) Version/18.4 Safari/605.1.15" version="26.2.13">
  <diagram id="Ht1M8jgEwFfnCIfOTk4-" name="Page-1">
    <mxGraphModel dx="1640" dy="1447" grid="1" gridSize="10" guides="1" tooltips="1" connect="1" arrows="1" fold="1" page="1" pageScale="1" pageWidth="1169" pageHeight="827" math="0" shadow="0">
      <root>
        <mxCell id="0" />
        <mxCell id="1" parent="0" />
        <mxCell id="tNwn93UXLcH05_h4pq4x-1" value="AWS Account" style="points=[[0,0],[0.25,0],[0.5,0],[0.75,0],[1,0],[1,0.25],[1,0.5],[1,0.75],[1,1],[0.75,1],[0.5,1],[0.25,1],[0,1],[0,0.75],[0,0.5],[0,0.25]];outlineConnect=0;gradientColor=none;html=1;whiteSpace=wrap;fontSize=12;fontStyle=0;container=1;pointerEvents=0;collapsible=0;recursiveResize=0;shape=mxgraph.aws4.group;grIcon=mxgraph.aws4.group_account;strokeColor=#CD2264;fillColor=none;verticalAlign=top;align=left;spacingLeft=30;fontColor=#CD2264;dashed=0;" parent="1" vertex="1">
          <mxGeometry x="210" y="110" width="690" height="450" as="geometry" />
        </mxCell>
        <mxCell id="tNwn93UXLcH05_h4pq4x-10" value="AWS Cloud" style="points=[[0,0],[0.25,0],[0.5,0],[0.75,0],[1,0],[1,0.25],[1,0.5],[1,0.75],[1,1],[0.75,1],[0.5,1],[0.25,1],[0,1],[0,0.75],[0,0.5],[0,0.25]];outlineConnect=0;gradientColor=none;html=1;whiteSpace=wrap;fontSize=12;fontStyle=0;container=1;pointerEvents=0;collapsible=0;recursiveResize=0;shape=mxgraph.aws4.group;grIcon=mxgraph.aws4.group_aws_cloud_alt;strokeColor=#232F3E;fillColor=none;verticalAlign=top;align=left;spacingLeft=30;fontColor=#232F3E;dashed=0;" parent="1" vertex="1">
          <mxGeometry x="180" y="75" width="760" height="515" as="geometry" />
        </mxCell>
        <mxCell id="tNwn93UXLcH05_h4pq4x-3" value="Region" style="points=[[0,0],[0.25,0],[0.5,0],[0.75,0],[1,0],[1,0.25],[1,0.5],[1,0.75],[1,1],[0.75,1],[0.5,1],[0.25,1],[0,1],[0,0.75],[0,0.5],[0,0.25]];outlineConnect=0;gradientColor=none;html=1;whiteSpace=wrap;fontSize=12;fontStyle=0;container=1;pointerEvents=0;collapsible=0;recursiveResize=0;shape=mxgraph.aws4.group;grIcon=mxgraph.aws4.group_region;strokeColor=#00A4A6;fillColor=none;verticalAlign=top;align=left;spacingLeft=30;fontColor=#147EBA;dashed=1;" parent="tNwn93UXLcH05_h4pq4x-10" vertex="1">
          <mxGeometry x="50" y="70" width="640" height="390" as="geometry" />
        </mxCell>
        <mxCell id="tNwn93UXLcH05_h4pq4x-2" value="VPC" style="sketch=0;outlineConnect=0;gradientColor=none;html=1;whiteSpace=wrap;fontSize=12;fontStyle=0;shape=mxgraph.aws4.group;grIcon=mxgraph.aws4.group_vpc;strokeColor=#879196;fillColor=none;verticalAlign=top;align=left;spacingLeft=30;fontColor=#879196;dashed=0;" parent="tNwn93UXLcH05_h4pq4x-3" vertex="1">
          <mxGeometry x="30" y="30" width="570" height="320" as="geometry" />
        </mxCell>
        <mxCell id="tNwn93UXLcH05_h4pq4x-6" value="Private subnet" style="points=[[0,0],[0.25,0],[0.5,0],[0.75,0],[1,0],[1,0.25],[1,0.5],[1,0.75],[1,1],[0.75,1],[0.5,1],[0.25,1],[0,1],[0,0.75],[0,0.5],[0,0.25]];outlineConnect=0;gradientColor=none;html=1;whiteSpace=wrap;fontSize=12;fontStyle=0;container=1;pointerEvents=0;collapsible=0;recursiveResize=0;shape=mxgraph.aws4.group;grIcon=mxgraph.aws4.group_security_group;grStroke=0;strokeColor=#00A4A6;fillColor=#E6F6F7;verticalAlign=top;align=left;spacingLeft=30;fontColor=#147EBA;dashed=0;" parent="tNwn93UXLcH05_h4pq4x-3" vertex="1">
          <mxGeometry x="355" y="116" width="185" height="160" as="geometry" />
        </mxCell>
        <mxCell id="tNwn93UXLcH05_h4pq4x-7" value="" style="sketch=0;points=[[0,0,0],[0.25,0,0],[0.5,0,0],[0.75,0,0],[1,0,0],[0,1,0],[0.25,1,0],[0.5,1,0],[0.75,1,0],[1,1,0],[0,0.25,0],[0,0.5,0],[0,0.75,0],[1,0.25,0],[1,0.5,0],[1,0.75,0]];outlineConnect=0;fontColor=#232F3E;fillColor=#ED7100;strokeColor=#ffffff;dashed=0;verticalLabelPosition=bottom;verticalAlign=top;align=center;html=1;fontSize=12;fontStyle=0;aspect=fixed;shape=mxgraph.aws4.resourceIcon;resIcon=mxgraph.aws4.ec2;" parent="tNwn93UXLcH05_h4pq4x-6" vertex="1">
          <mxGeometry x="53.5" y="41" width="78" height="78" as="geometry" />
        </mxCell>
        <mxCell id="tNwn93UXLcH05_h4pq4x-5" value="Public subnet" style="points=[[0,0],[0.25,0],[0.5,0],[0.75,0],[1,0],[1,0.25],[1,0.5],[1,0.75],[1,1],[0.75,1],[0.5,1],[0.25,1],[0,1],[0,0.75],[0,0.5],[0,0.25]];outlineConnect=0;gradientColor=none;html=1;whiteSpace=wrap;fontSize=12;fontStyle=0;container=1;pointerEvents=0;collapsible=0;recursiveResize=0;shape=mxgraph.aws4.group;grIcon=mxgraph.aws4.group_security_group;grStroke=0;strokeColor=#7AA116;fillColor=#F2F6E8;verticalAlign=top;align=left;spacingLeft=30;fontColor=#248814;dashed=0;" parent="tNwn93UXLcH05_h4pq4x-3" vertex="1">
          <mxGeometry x="120" y="119" width="175" height="156" as="geometry" />
        </mxCell>
        <mxCell id="tNwn93UXLcH05_h4pq4x-11" value="" style="sketch=0;points=[[0,0,0],[0.25,0,0],[0.5,0,0],[0.75,0,0],[1,0,0],[0,1,0],[0.25,1,0],[0.5,1,0],[0.75,1,0],[1,1,0],[0,0.25,0],[0,0.5,0],[0,0.75,0],[1,0.25,0],[1,0.5,0],[1,0.75,0]];outlineConnect=0;fontColor=#232F3E;fillColor=#ED7100;strokeColor=#ffffff;dashed=0;verticalLabelPosition=bottom;verticalAlign=top;align=center;html=1;fontSize=12;fontStyle=0;aspect=fixed;shape=mxgraph.aws4.resourceIcon;resIcon=mxgraph.aws4.ec2;" parent="tNwn93UXLcH05_h4pq4x-5" vertex="1">
          <mxGeometry x="48.5" y="41" width="78" height="78" as="geometry" />
        </mxCell>
        <mxCell id="dMfd8SoitnBmcq-nOmmK-1" value="" style="outlineConnect=0;dashed=0;verticalLabelPosition=bottom;verticalAlign=top;align=center;html=1;shape=mxgraph.aws3.internet_gateway;fillColor=#F58534;gradientColor=none;" vertex="1" parent="tNwn93UXLcH05_h4pq4x-3">
          <mxGeometry y="162" width="69" height="72" as="geometry" />
        </mxCell>
        <mxCell id="dMfd8SoitnBmcq-nOmmK-3" value="Bastion server" style="text;html=1;align=center;verticalAlign=middle;whiteSpace=wrap;rounded=0;" vertex="1" parent="tNwn93UXLcH05_h4pq4x-3">
          <mxGeometry x="162.5" y="239" width="90" height="30" as="geometry" />
        </mxCell>
        <mxCell id="dMfd8SoitnBmcq-nOmmK-4" value="Private server" style="text;html=1;align=center;verticalAlign=middle;resizable=0;points=[];autosize=1;strokeColor=none;fillColor=none;" vertex="1" parent="tNwn93UXLcH05_h4pq4x-3">
          <mxGeometry x="397.5" y="239" width="100" height="30" as="geometry" />
        </mxCell>
        <mxCell id="dMfd8SoitnBmcq-nOmmK-5" value="Internet Gateway" style="text;html=1;align=center;verticalAlign=middle;resizable=0;points=[];autosize=1;strokeColor=none;fillColor=none;" vertex="1" parent="tNwn93UXLcH05_h4pq4x-3">
          <mxGeometry x="-20.5" y="234" width="110" height="30" as="geometry" />
        </mxCell>
        <mxCell id="dMfd8SoitnBmcq-nOmmK-6" value="" style="endArrow=classic;html=1;rounded=0;entryX=1;entryY=0.5;entryDx=0;entryDy=0;entryPerimeter=0;exitX=0;exitY=0.5;exitDx=0;exitDy=0;exitPerimeter=0;" edge="1" parent="tNwn93UXLcH05_h4pq4x-3" source="tNwn93UXLcH05_h4pq4x-11" target="dMfd8SoitnBmcq-nOmmK-1">
          <mxGeometry width="50" height="50" relative="1" as="geometry">
            <mxPoint x="520" y="475" as="sourcePoint" />
            <mxPoint x="570" y="425" as="targetPoint" />
          </mxGeometry>
        </mxCell>
        <mxCell id="dMfd8SoitnBmcq-nOmmK-7" value="Internet" style="sketch=0;outlineConnect=0;fontColor=#232F3E;gradientColor=none;strokeColor=#232F3E;fillColor=#ffffff;dashed=0;verticalLabelPosition=bottom;verticalAlign=top;align=center;html=1;fontSize=12;fontStyle=0;aspect=fixed;shape=mxgraph.aws4.resourceIcon;resIcon=mxgraph.aws4.internet;" vertex="1" parent="1">
          <mxGeometry x="70" y="310" width="60" height="60" as="geometry" />
        </mxCell>
        <mxCell id="dMfd8SoitnBmcq-nOmmK-8" value="" style="endArrow=classic;html=1;rounded=0;exitX=0;exitY=0.5;exitDx=0;exitDy=0;" edge="1" parent="1" source="tNwn93UXLcH05_h4pq4x-3" target="dMfd8SoitnBmcq-nOmmK-7">
          <mxGeometry width="50" height="50" relative="1" as="geometry">
            <mxPoint x="409" y="354" as="sourcePoint" />
            <mxPoint x="309" y="353" as="targetPoint" />
          </mxGeometry>
        </mxCell>
      </root>
    </mxGraphModel>
  </diagram>
</mxfile>
